PathFileType	4	(X/Y/Z)	D:\MotionData\NordSprintingStudy\Kristen_Nord_test_zero_plates\Trimmed_NordZeroed000004.trc
DataRate	CameraRate	NumFrames	NumMarkers	Units	OrigDataRate	OrigDataStartFrame	OrigNumFrames
200.00	200.00	      6	52	mm	200.00	1	      1912
Frame#	Time	C7			R_Shoulder			L_Shoulder			Sternum			R_humerus			R_elbow_med			R_elbow_lat			R_forearm			R_wrist_radius			R_wrist_ulna			L_humerus			L_elbow_med			L_elbow_lat			L_forearm			L_wrist_radius			L_wrist_ulna			r.ASIS			r.PSIS			r_IC			L.ASIS			L.PSIS			l_IC			r_thigh1			r_thigh2			r_thigh3			r_thigh4			r_thigh5			r_knee			r_mknee			r_shank_antsup			r_sh2			r_sh3			r_sh4			r_ankle			r_mankle			r_calc			r_5meta			r_toe			L_thigh1			L_thigh2			L_thigh3			L_thigh4			L_knee			L_mknee			L_shank_antsup			L_sh2			L_sh3			L_ankle			L_mankle			L_calc			L_5meta			L_toe			
		X1	Y1	Z1	X2	Y2	Z2	X3	Y3	Z3	X4	Y4	Z4	X5	Y5	Z5	X6	Y6	Z6	X7	Y7	Z7	X8	Y8	Z8	X9	Y9	Z9	X10	Y10	Z10	X11	Y11	Z11	X12	Y12	Z12	X13	Y13	Z13	X14	Y14	Z14	X15	Y15	Z15	X16	Y16	Z16	X17	Y17	Z17	X18	Y18	Z18	X19	Y19	Z19	X20	Y20	Z20	X21	Y21	Z21	X22	Y22	Z22	X23	Y23	Z23	X24	Y24	Z24	X25	Y25	Z25	X26	Y26	Z26	X27	Y27	Z27	X28	Y28	Z28	X29	Y29	Z29	X30	Y30	Z30	X31	Y31	Z31	X32	Y32	Z32	X33	Y33	Z33	X34	Y34	Z34	X35	Y35	Z35	X36	Y36	Z36	X37	Y37	Z37	X38	Y38	Z38	X39	Y39	Z39	X40	Y40	Z40	X41	Y41	Z41	X42	Y42	Z42	X43	Y43	Z43	X44	Y44	Z44	X45	Y45	Z45	X46	Y46	Z46	X47	Y47	Z47	X48	Y48	Z48	X49	Y49	Z49	X50	Y50	Z50	X51	Y51	Z51	X52	Y52	Z52	

1	0.000	1243.79578	408.24951	1277.33948	1360.78320	458.35342	1283.12988	1109.68921	440.97263	1290.72778	1229.71985	534.62756	1226.41052	1523.53052	400.27475	1245.60535	1657.32971	445.69150	1185.10828	1641.86804	370.69086	1222.26660	1637.57166	436.18451	1330.15942	1585.90686	539.69202	1393.68542	1645.53833	510.00629	1416.61511	950.12048	366.99744	1249.46802	793.00696	422.47742	1215.54553	817.31494	351.03159	1264.24011	848.03955	402.08527	1348.96765	871.17975	490.56393	1435.90271	939.74658	482.20059	1407.01697	1349.03760	466.91251	747.97150	1314.66040	317.23419	869.94366	1394.97607	412.90781	848.41571	1121.08533	446.10419	742.83435	1200.59827	306.18530	872.11157	1091.45483	415.93085	845.78943	1367.60791	428.32858	509.54465	1361.35828	405.08246	394.24536	1398.24316	368.71902	372.73978	1424.57739	337.41220	526.43018	1414.69910	315.06931	411.41275	1398.15649	303.81860	307.49088	1272.70654	292.08231	309.88855	1418.45496	196.21434	307.20715	1422.91553	74.07953	313.08664	1419.60583	197.17044	384.30090	1406.52344	80.34869	392.84024	1417.53992	-88.30936	353.93643	1340.52588	-85.32457	326.62402	1346.94238	-94.75642	420.72968	1419.75244	-205.72487	284.18643	1383.82043	-188.19484	232.42432	1044.54785	369.18445	550.73834	1031.62500	337.90359	414.70303	1050.88098	254.13875	580.63971	1058.77393	228.01036	443.83176	1031.79297	257.98621	336.93362	1160.67236	259.99918	310.05240	1022.89044	162.17648	319.32431	1038.36206	167.57271	407.73187	1043.89856	46.97756	404.71777	1074.86389	-116.66739	371.31912	1149.01123	-108.65611	341.38351	1120.41724	-124.46821	428.47534	1093.38416	-246.11505	286.15253	1126.73303	-217.82147	244.28888	
2	0.005	1243.35278	408.61041	1277.09656	1360.75183	458.52206	1283.01672	1109.56824	441.35147	1290.68408	1229.71448	534.81702	1226.32507	1523.65173	400.34775	1245.62866	1657.30627	445.77203	1184.98218	1641.82385	370.79962	1222.14050	1637.61426	436.14389	1330.18445	1585.86206	539.82892	1393.66052	1645.52356	510.08295	1416.50134	950.10120	367.23230	1249.43628	792.99872	422.63657	1215.52673	817.31018	351.19559	1264.21509	848.04431	402.28806	1348.92688	871.13599	490.79041	1435.85327	939.70361	482.41302	1406.99377	1349.01294	467.06534	747.91528	1314.64783	317.38977	869.88513	1394.95947	413.05301	848.33459	1121.04810	446.26505	742.81226	1200.60083	306.34280	872.03552	1091.38892	416.06781	845.76544	1367.59546	428.57294	509.52908	1361.13562	405.05930	393.99139	1398.24207	368.74939	372.70166	1424.58752	337.48276	526.43591	1414.68469	315.12885	411.40143	1398.19006	303.85614	307.39349	1272.68433	292.08868	309.88199	1418.43591	196.24353	307.16495	1422.96667	74.12292	313.07684	1419.64978	197.23100	384.29346	1406.61523	80.35461	392.98914	1416.71704	-88.16720	353.63406	1340.60535	-85.28518	326.53497	1347.03699	-94.70270	420.64481	1419.82751	-205.67410	284.14502	1384.02490	-188.12653	232.21034	1044.49854	369.26038	550.71014	1031.60669	337.96671	414.66858	1050.84265	254.20558	580.67438	1058.76941	228.01276	443.88071	1031.83813	258.01736	336.85504	1160.68823	260.00793	310.04449	1022.87982	162.16644	319.31110	1038.36816	167.54214	407.68875	1043.67212	47.37406	404.54404	1074.87292	-116.67091	371.31680	1149.06482	-108.69145	341.25909	1120.37378	-124.46713	428.42859	1093.46765	-246.08128	286.04926	1126.79382	-217.82428	244.29398	
3	0.010	1243.32703	408.87955	1276.98499	1360.72693	458.71063	1282.92822	1109.56152	441.53311	1290.59851	1229.66797	534.92413	1226.38245	1523.65369	400.46710	1245.43835	1657.30188	445.80072	1184.81653	1641.79187	370.88834	1222.02112	1637.66333	436.19321	1330.14417	1586.34961	540.01996	1393.00708	1645.53955	510.18530	1416.34644	950.12921	367.43387	1249.32227	792.98523	422.80450	1215.50842	817.30267	351.36176	1264.22644	848.06677	402.47507	1348.82751	871.10822	491.00064	1435.83716	939.68311	482.62375	1406.97095	1348.99548	467.19672	747.84729	1314.62207	317.57898	869.85492	1394.95715	413.25067	848.26849	1121.00964	446.35904	742.69226	1200.60852	306.51608	871.95264	1091.32251	416.21478	845.69965	1367.57031	428.46710	509.45258	1361.29675	405.08267	394.11417	1398.19849	368.83148	372.64795	1424.56250	337.63562	526.41772	1414.66064	315.22714	411.37216	1398.23767	303.89145	307.30582	1272.70190	292.10507	309.88818	1418.47424	196.26422	307.15723	1422.94824	74.16065	313.03903	1419.54541	197.29810	383.98227	1406.57153	80.42960	392.85873	1416.47461	-88.15694	353.88437	1340.64319	-85.29487	326.62115	1347.11157	-94.67758	420.63840	1419.99023	-205.64207	284.09082	1384.07251	-188.13466	232.26410	1044.47937	369.29654	550.65637	1031.62659	338.28284	414.25830	1050.84106	254.24774	580.66119	1058.85144	228.01480	443.88007	1031.90002	258.02576	336.76788	1160.67603	259.99530	310.02417	1022.88885	162.19632	319.30029	1038.37976	167.54091	407.69519	1043.94775	46.94976	404.72824	1074.84949	-116.62759	371.27017	1149.09314	-108.79056	341.06253	1120.38599	-124.49168	428.40598	1093.48376	-246.09993	286.10022	1126.74243	-217.82964	244.29034	
4	0.015	1243.30066	409.13260	1276.87427	1360.70325	458.92300	1282.79553	1109.56970	441.72992	1290.50671	1229.63989	535.15393	1226.25647	1523.67407	400.60629	1245.27686	1657.28394	445.86728	1184.67200	1641.75940	370.97226	1221.90991	1637.55383	436.31595	1329.98730	1586.32739	540.12946	1392.94226	1645.54456	510.27219	1416.23560	950.14905	367.63022	1249.22937	792.92828	422.97968	1215.51062	817.26721	351.53955	1264.20618	848.04303	402.67477	1348.78833	871.08331	491.19928	1435.80701	939.65430	482.82748	1406.94226	1348.95715	467.33994	747.77734	1314.61243	317.73996	869.78363	1394.94263	413.39752	848.18036	1120.95154	446.48822	742.68787	1200.61108	306.69138	871.89825	1091.27576	416.38162	845.67322	1367.48547	428.56213	509.37854	1360.98499	405.18256	393.74600	1398.20337	368.88870	372.60590	1424.55298	337.73560	526.38269	1414.68652	315.31818	411.32599	1398.24255	303.87445	307.21851	1272.69702	292.13864	309.87064	1418.51086	196.31506	307.10483	1423.01086	74.20357	313.04630	1419.57532	197.36061	383.93781	1406.72925	80.52183	392.96692	1416.55151	-88.10926	353.77884	1340.71509	-85.27614	326.57126	1347.19629	-94.62790	420.56403	1420.08386	-205.58437	284.06763	1384.18799	-188.16025	232.24425	1044.44153	369.36423	550.62018	1031.58313	337.90115	414.54208	1050.81995	254.28534	580.64734	1058.78052	228.03397	443.86685	1032.04626	258.10434	336.81183	1160.64929	259.98740	309.99982	1022.88544	162.18230	319.28104	1038.37012	167.54781	407.66006	1043.71851	47.35387	404.52347	1074.84973	-116.65189	371.28104	1149.18188	-108.76532	340.91208	1120.39966	-124.48433	428.40793	1093.51538	-246.11066	286.04541	1126.77759	-217.82849	244.28688	
5	0.020	1243.31067	409.32516	1276.80774	1360.69800	459.10471	1282.71472	1109.55615	441.94464	1290.41016	1229.62585	535.34399	1226.19678	1523.62964	400.74115	1245.17725	1657.28857	445.94147	1184.54553	1641.73547	371.06644	1221.78589	1637.61292	436.36786	1329.93066	1586.29285	540.27509	1392.84839	1645.56799	510.38470	1416.12488	950.12537	367.82059	1249.13940	792.89227	423.11188	1215.48462	817.17426	351.78790	1264.07678	848.06708	402.85495	1348.73584	871.05005	491.36847	1435.79089	939.62366	483.02844	1406.93335	1348.93774	467.47339	747.71753	1314.63184	317.90790	869.69977	1394.94104	413.61810	848.04926	1120.93298	446.59494	742.59247	1200.62305	306.85297	871.81116	1091.22314	416.55316	845.61780	1367.47583	428.68866	509.30063	1360.96521	404.86023	393.74280	1398.16980	368.96277	372.54874	1424.53223	337.83969	526.35602	1414.68787	315.41061	411.30396	1398.28894	303.90918	307.08856	1272.69739	292.09891	309.86926	1418.51038	196.34526	307.09418	1423.03333	74.25684	313.00677	1419.71448	197.35510	384.25604	1406.79285	80.48480	393.06937	1416.96912	-88.01575	353.45758	1340.78430	-85.27265	326.65808	1347.34900	-94.55746	420.49768	1420.20203	-205.57747	283.98523	1384.26685	-188.15594	232.19263	1044.39172	369.39072	550.60040	1031.56763	337.89862	414.51144	1050.85388	254.38062	580.65485	1058.84766	228.08722	443.88437	1032.05591	258.16501	336.72510	1160.68408	259.99164	310.00690	1022.87201	162.17747	319.28009	1038.37878	167.51120	407.65121	1043.95935	46.90540	404.64767	1074.84766	-116.68356	371.26782	1149.20569	-108.80921	340.82562	1120.41016	-124.48523	428.36157	1093.50439	-246.14011	286.10229	1126.82703	-217.87877	244.35640	
6	0.025	1243.27747	409.53116	1276.72522	1360.67053	459.26129	1282.62488	1109.54895	442.14301	1290.31042	1229.61108	535.53918	1226.09119	1524.11169	400.70535	1245.35583	1657.27014	446.02783	1184.40210	1641.71729	371.17688	1221.69165	1637.59314	436.45947	1329.80896	1586.35364	540.39618	1392.79517	1645.55579	510.48083	1416.01221	950.12708	368.01001	1249.02637	792.87152	423.28085	1215.45825	817.26349	351.88788	1264.19104	848.07880	403.02383	1348.70801	871.02814	491.54892	1435.79382	939.59717	483.20151	1406.92664	1348.91345	467.61874	747.64752	1314.64099	318.10580	869.63989	1394.90942	413.78384	847.97162	1120.86621	446.72894	742.57867	1200.66907	307.04449	871.75818	1091.19373	416.70276	845.58490	1367.46863	428.75406	509.30368	1361.30933	405.38049	393.92038	1398.57751	369.01764	372.41879	1424.53210	337.94864	526.35803	1414.68909	315.46747	411.27286	1398.32593	303.96002	307.06439	1272.68762	292.10822	309.90399	1418.51367	196.38303	307.06516	1423.07312	74.27013	313.02014	1419.61536	197.44766	383.94122	1406.76624	80.53033	392.91357	1417.09204	-87.94832	353.35834	1340.75745	-85.18833	326.79208	1347.48523	-94.53587	420.46121	1420.30493	-205.54701	283.94183	1384.41821	-188.13138	232.10780	1044.38501	369.41660	550.57178	1031.56628	337.94550	414.43591	1050.82886	254.39064	580.64905	1058.83508	228.07593	443.88339	1031.94580	258.07745	336.63104	1160.66260	259.98224	310.01907	1022.84381	162.15398	319.29251	1038.36353	167.52151	407.64767	1043.60107	47.34737	404.57233	1074.83411	-116.71104	371.24536	1149.30676	-108.76479	340.62811	1120.41003	-124.51034	428.36951	1093.52466	-246.18163	286.16800	1126.81628	-217.89711	244.29478	
